<?xml version="1.0" encoding="UTF-8"?>
<svg width="200" height="200" viewBox="0 0 200 200" xmlns="http://www.w3.org/2000/svg">
  <!-- Background Circle -->
  <circle cx="100" cy="100" r="95" fill="#ff6b35" opacity="0.1"/>

  <!-- Main Circle -->
  <circle cx="100" cy="100" r="85" fill="#ff6b35"/>

  <!-- Medical Cross -->
  <g transform="translate(100, 100)">
    <!-- Vertical Bar -->
    <rect x="-15" y="-50" width="30" height="100" fill="white" rx="4"/>
    <!-- Horizontal Bar -->
    <rect x="-50" y="-15" width="100" height="30" fill="white" rx="4"/>

    <!-- Heart Symbol in Center -->
    <path d="M0,-5 C-5,-12 -15,-12 -15,-5 C-15,2 -8,8 0,15 C8,8 15,2 15,-5 C15,-12 5,-12 0,-5Z"
          fill="#ff6b35" stroke="white" stroke-width="0.5"/>
  </g>

  <!-- Turkey Map Outline (Simplified) -->
  <g transform="translate(100, 140) scale(0.3)">
    <path d="M-80,0 Q-60,-10 -40,-8 L-20,-12 L0,-10 L20,-8 L40,-10 L60,-5 L80,0 L75,10 L60,15 L40,12 L20,15 L0,18 L-20,15 L-40,12 L-60,15 L-75,10 Z"
          fill="white" opacity="0.3"/>
  </g>

  <!-- Text -->
  <text x="100" y="175" font-family="Arial, sans-serif" font-size="10" font-weight="bold" fill="white" text-anchor="middle">
    AİLE HEKİMLİĞİ
  </text>
</svg>